<svg width="199" height="181" viewBox="0 0 199 181" fill="none" xmlns="http://www.w3.org/2000/svg">
<path d="M151.419 111.862L101.692 87.1773L99.7113 88.4043L98.2041 86.9455L48.0039 111.862L46.0233 115.06L47.231 117.871L95.2574 141.706H99.7113H104.165L152.182 117.871L153.399 115.06L151.419 111.862Z" fill="#95001A"/>
<path d="M46.0229 115.06L99.7109 141.706V143.918L64.9205 161.193H60.4569L46.0229 153.928L44.0423 150.971V118.248L46.0229 115.06Z" fill="#40004D"/>
<path d="M153.399 115.06L99.7306 141.706V143.918L134.521 161.193H138.984L153.418 153.928L155.399 150.971V118.248L153.399 115.06Z" fill="#520033"/>
<path d="M153.419 62.0679L151.438 63.3045V111.862L153.399 115.06L155.399 118.248L187.852 134.354H192.305L198.701 131.137L153.419 62.0679Z" fill="#FFA80A"/>
<path d="M46.0235 62.0679L48.0041 63.3045V111.862L46.0235 115.06L44.043 118.248L11.5906 134.354H7.13674L0.740952 131.137L46.0235 62.0679Z" fill="#FF3417"/>
<path d="M46.0239 153.928L7.13705 134.354L46.0239 115.06V153.928Z" fill="#6D0044"/>
<path d="M99.7111 180.941L138.955 161.193L99.7111 141.706L60.4572 161.193L99.7111 180.941Z" fill="#6D0074"/>
<path d="M153.419 153.928L192.305 134.354L153.399 115.06L153.419 153.928Z" fill="#6D0044"/>
<path d="M99.7209 0.94043H86.1081L46.0233 62.0676L48.0039 63.3042L99.7113 37.6341V35.4217L101.692 34.0401L101.701 2.66981L99.7209 0.94043Z" fill="#FFA80A"/>
<path d="M99.7113 35.422L46.0233 62.0679V115.06L99.7113 88.4046L101.692 87.1776V38.6102L99.7113 35.422Z" fill="#D7001F"/>
<path d="M99.7207 0.94043H113.334L153.418 62.0676L151.438 63.3042L101.692 38.6099L99.7111 35.4217L99.7207 0.94043Z" fill="#FFE50A"/>
<path d="M153.399 115.06L99.7111 88.4046V35.422L153.399 62.0679V115.06Z" fill="#EF8109"/>
</svg>
